<svg version="1" xmlns="http://www.w3.org/2000/svg" width="346.667" height="346.667" viewBox="0 0 260.000000 260.000000"><path d="M122.8 2.5c-.2.1-3.5.5-7.4.8-3.9.4-7.7.9-8.5 1.1-.8.3-3 .7-4.9 1C92.5 6.8 65 18 59.9 22.6c-.8.8-1.9 1.4-2.3 1.4-1.5 0-13.2 9.6-20.2 16.5C19 58.6 5.9 83.6 1.7 108.5c-2.8 15.8-1.7 38.2 2.6 55 3 11.9 12 30.3 19.9 40.9 21.9 29.2 52.1 46.8 89.8 52.2 8.9 1.3 29 .8 38.5-1 2.8-.5 9.9-1.9 10.5-2.1.3-.1 2.1-.5 4-.9 1.9-.5 4-1.1 4.5-1.5.6-.4 2.8-1.3 5-2 15.1-5.1 37.9-20 48.6-31.8 9.2-10.1 16.6-20.8 22.3-32 3.2-6.5 8.8-22.5 10.1-28.8.3-1.7.8-4.1 1.1-5.5.4-1.4.8-9.3.9-17.5.5-18.9-.5-26.3-5.6-42.3-9.7-30.3-32.4-57.4-61-73-11.4-6.1-28.4-12-39.4-13.6-2.2-.4-5.3-.9-7-1.2-3.1-.5-23.2-1.3-23.7-.9zm65.9 77.2c4.9 2.7 10 5.5 11.2 6.3l2.1 1.5-4 4.4c-4.6 5-9.2 12.8-11 18.6-2.6 8.5-15.5 30.8-24.5 42.4-11.4 14.9-32.8 33.1-51.2 43.6l-3.2 1.9-3.8-3.8c-2.1-2.1-5.3-4.5-7-5.2-4.5-1.9-4.1-3.6 1.5-6.3 9.1-4.4 27.9-18.8 38.7-29.6 12.5-12.6 20.5-24.2 29.4-42.7 5.2-10.6 11.1-27.1 11.1-30.6 0-1.9.9-5.2 1.4-5.2.2 0 4.3 2.1 9.3 4.7zm-87.4 15.1c9.2 10.9 16.5 20.4 16.9 22.1.2.6-3.3 3.5-7.7 6.4l-7.9 5.5-9.8-14.5C87.4 106.4 81 97.2 78.5 94l-4.6-5.9 6.8-4.6 6.8-4.5 2.5 2.7c1.4 1.6 6.5 7.4 11.3 13.1z"/></svg>